<svg width="25" height="25" viewBox="0 0 25 25" fill="none" xmlns="http://www.w3.org/2000/svg">
<path d="M12.3662 0C9.92445 0 7.53754 0.724062 5.5073 2.08062C3.47706 3.43718 1.89469 5.36531 0.96027 7.62119C0.0258553 9.87707 -0.218628 12.3594 0.257733 14.7542C0.734093 17.149 1.9099 19.3488 3.63648 21.0754C5.36305 22.802 7.56284 23.9778 9.95767 24.4541C12.3525 24.9305 14.8348 24.686 17.0907 23.7516C19.3466 22.8172 21.2747 21.2348 22.6312 19.2046C23.9878 17.1743 24.7119 14.7874 24.7119 12.3457C24.71 9.07198 23.4087 5.93291 21.0938 3.61805C18.779 1.3032 15.6399 0.00188813 12.3662 0ZM18.7184 9.362L11.4659 16.6407C11.2272 16.8812 10.9044 17.0196 10.5655 17.0267C10.3968 17.0289 10.2295 16.9956 10.0744 16.9291C9.91936 16.8626 9.77995 16.7644 9.6652 16.6407L6.01281 12.9883C5.78338 12.7436 5.65819 12.4192 5.66376 12.0838C5.66932 11.7484 5.80519 11.4283 6.04262 11.1913C6.28004 10.9544 6.60038 10.8191 6.93578 10.8142C7.27119 10.8093 7.59534 10.9351 7.8396 11.165L10.5715 13.8969L16.9237 7.54471C17.0423 7.4227 17.1842 7.32572 17.341 7.2595C17.4978 7.19327 17.6663 7.15915 17.8365 7.15915C18.0067 7.15915 18.1751 7.19327 18.3319 7.2595C18.4887 7.32572 18.6306 7.4227 18.7493 7.54471C18.9864 7.79102 19.1167 8.12101 19.1118 8.46289C19.1069 8.80478 18.9672 9.1309 18.7231 9.37032L18.7184 9.362Z" fill="#022B50"/>
</svg>
