<?xml version="1.0" encoding="utf-8"?>
<!-- Generator: Adobe Illustrator 24.3.0, SVG Export Plug-In . SVG Version: 6.00 Build 0)  -->
<svg version="1.1" id="Layer_1" xmlns="http://www.w3.org/2000/svg" xmlns:xlink="http://www.w3.org/1999/xlink" x="0px" y="0px"
	 viewBox="0 0 73 70" style="enable-background:new 0 0 73 70;" xml:space="preserve">
<style type="text/css">
	.st0{fill:#B5D5B7;}
	.st1{fill:#096537;}
	.st2{fill:#FFFFFF;stroke:#FFFFFF;stroke-width:0.5214;}
</style>
<circle class="st0" cx="32.6" cy="37" r="32.6"/>
<circle class="st1" cx="40.4" cy="33" r="32.6"/>
<path class="st2" d="M25.3,16.1c-1.4,0-2.5,1.1-2.5,2.5v19.7c0,1.3,1.1,2.5,2.5,2.5h30.2c1.4,0,2.5-1.1,2.5-2.5V18.6
	c0-1.3-1.1-2.5-2.5-2.5H25.3z M25.3,17.7h30.2c0.5,0,0.8,0.3,0.8,0.8v19.7c0,0.5-0.4,0.8-0.8,0.8H25.3c-0.5,0-0.8-0.4-0.8-0.8V18.6
	C24.5,18.1,24.8,17.7,25.3,17.7z M27,19.4c-0.2,0-0.4,0.1-0.6,0.2c-0.2,0.2-0.2,0.4-0.2,0.6v16.4c0,0.2,0.1,0.4,0.3,0.6
	c0.2,0.2,0.4,0.2,0.6,0.2h26.8c0.2,0,0.5-0.1,0.6-0.2c0.2-0.2,0.3-0.4,0.3-0.6c0-0.2-0.1-0.4-0.3-0.6c-0.2-0.2-0.4-0.2-0.6-0.2h-26
	V20.2c0-0.2-0.1-0.4-0.2-0.6C27.4,19.4,27.2,19.4,27,19.4z M50.4,21c-0.2,0-0.4,0.1-0.6,0.3l-4.4,4.3l-2.8-2.7
	c-0.2-0.2-0.4-0.3-0.7-0.2s-0.5,0.1-0.6,0.3L37,28.8l-2.7-2.6c-0.2-0.2-0.4-0.3-0.7-0.2c-0.2,0-0.5,0.2-0.6,0.4l-3.4,4.9
	c-0.2,0.2-0.2,0.6-0.1,0.8c0.1,0.3,0.4,0.4,0.7,0.5c0.3,0,0.6-0.1,0.8-0.4l2.8-4.1l2.6,2.6c0.2,0.2,0.4,0.3,0.7,0.2
	c0.2,0,0.5-0.1,0.6-0.3l4.4-5.8l2.7,2.6c0.2,0.2,0.4,0.2,0.6,0.2c0.2,0,0.4-0.1,0.6-0.2l5-4.9c0.2-0.2,0.3-0.4,0.3-0.6
	c0-0.2-0.1-0.4-0.3-0.6C50.9,21.1,50.7,21,50.4,21z M37,43.4c-1.1,0-2.1,0.5-2.9,1.3c-0.8,0.7-1.3,1.7-1.3,2.8v1.6
	c0,0.2,0.1,0.4,0.2,0.6c0.2,0.2,0.4,0.2,0.6,0.2h13.4c0.2,0,0.4-0.1,0.6-0.2c0.2-0.2,0.2-0.4,0.2-0.6v-1.6c0-1.1-0.5-2.1-1.3-2.8
	c-0.8-0.7-1.8-1.3-2.9-1.3H37z M37,45.1h6.7c0.6,0,1.2,0.3,1.7,0.8c0.5,0.5,0.8,1.1,0.8,1.7v0.8H34.5v-0.8c0-0.5,0.3-1.2,0.8-1.7
	C35.8,45.4,36.5,45.1,37,45.1z"/>
</svg>
