<?xml version="1.0" encoding="utf-8"?>
<!-- Generator: Adobe Illustrator 24.3.0, SVG Export Plug-In . SVG Version: 6.00 Build 0)  -->
<svg version="1.1" id="Layer_1" xmlns="http://www.w3.org/2000/svg" xmlns:xlink="http://www.w3.org/1999/xlink" x="0px" y="0px"
	 viewBox="0 0 100 100" style="enable-background:new 0 0 100 100;" xml:space="preserve">
<style type="text/css">
	.st0{fill:#BEE0C0;}
	.st1{fill:#0F6637;}
	.st2{fill:#FFFFFF;}
</style>
<circle class="st0" cx="46.3" cy="52.5" r="39.2"/>
<circle class="st1" cx="54.1" cy="46.2" r="39.2"/>
<path class="st2" d="M64.8,37.1h-5.1c-0.3-2.9-1.8-5.6-4-7.4h9.1c0.6,0,1.1-0.5,1.1-1.1c0-0.6-0.5-1.1-1.1-1.1H43.4
	c-0.6,0-1.1,0.5-1.1,1.1c0,0.6,0.5,1.1,1.1,1.1h6.2c1.9,0,3.8,0.8,5.3,2.1c1.5,1.4,2.4,3.2,2.7,5.3H43.4c-0.6,0-1.1,0.5-1.1,1.1
	c0,0.6,0.5,1.1,1.1,1.1h14.2c-0.2,2.2-1.1,4.2-2.6,5.6c-1.5,1.5-3.4,2.3-5.4,2.3h-6.2c-0.4-0.1-0.8,0.2-1,0.6
	c-0.2,0.4-0.1,0.9,0.2,1.2L58,64.8c0.2,0.2,0.5,0.3,0.7,0.3c0.4,0,0.8-0.3,0.9-0.7c0.2-0.4,0.1-0.9-0.2-1.2L46,49.7h3.5
	c5.2,0,9.7-4.6,10.2-10.3h5.1c0.6,0,1.1-0.5,1.1-1.1C65.9,37.6,65.4,37.1,64.8,37.1L64.8,37.1z"/>
</svg>
