<svg id="Layer_1" data-name="Layer 1" xmlns="http://www.w3.org/2000/svg" viewBox="0 0 71.7 70.39"><defs><style>.cls-1{fill:#b5d5b7;}.cls-2{fill:#096537;}.cls-3{fill:#fff;}</style></defs><circle class="cls-1" cx="32.59" cy="37.8" r="32.59"/><circle class="cls-2" cx="39.11" cy="32.59" r="32.59"/><path class="cls-3" d="M35.68,36.05a1.54,1.54,0,0,1-.44,1.07,1.5,1.5,0,0,1-1.06.44h-17a1.51,1.51,0,0,1-1.3-.76,1.56,1.56,0,0,1,0-1.51,1.51,1.51,0,0,1,1.3-.76h17a1.47,1.47,0,0,1,1.06.45A1.5,1.5,0,0,1,35.68,36.05Zm-1.5,4.54H21.65a1.48,1.48,0,0,0-1.3.76,1.51,1.51,0,0,0,0,1.51,1.48,1.48,0,0,0,1.3.76H34.18a1.52,1.52,0,0,0,0-3Zm0,6.06h-8a1.51,1.51,0,0,0-1.3.75,1.53,1.53,0,0,0,0,1.52,1.5,1.5,0,0,0,1.3.76h8a1.5,1.5,0,0,0,1.3-.76,1.53,1.53,0,0,0,0-1.52A1.51,1.51,0,0,0,34.18,46.65Zm8-11,6-6.08a1.52,1.52,0,0,0,.37-1.45,1.5,1.5,0,0,0-2.49-.69L40,33.5a1.52,1.52,0,0,0,0,2.16,1.52,1.52,0,0,0,1.07.44,1.5,1.5,0,0,0,1.07-.46ZM42.57,18V15.15H44a1.51,1.51,0,0,0,1.3-.75,1.53,1.53,0,0,0,0-1.52,1.5,1.5,0,0,0-1.3-.76H38.16a1.48,1.48,0,0,0-1.3.76,1.53,1.53,0,0,0,0,1.52,1.5,1.5,0,0,0,1.3.75h1.42V18A16.35,16.35,0,0,0,30.18,22l-2-2a1.48,1.48,0,0,0-1.45-.4,1.51,1.51,0,0,0-1.06,1.07,1.53,1.53,0,0,0,.39,1.47l2,2.05a16.84,16.84,0,0,0-2.79,5.3A1.54,1.54,0,0,0,25.68,31a1.5,1.5,0,0,0,2.51-.54,13.59,13.59,0,0,1,4.89-6.89,13.36,13.36,0,0,1,8-2.62h0a13.48,13.48,0,0,1,11.7,6.82,13.75,13.75,0,0,1,0,13.64,13.47,13.47,0,0,1-11.7,6.81l-.83,0a1.52,1.52,0,0,0-1.07.4,1.54,1.54,0,0,0-.48,1,1.57,1.57,0,0,0,.4,1.1,1.55,1.55,0,0,0,1,.49l.93,0a16.37,16.37,0,0,0,11.46-4.58,16.75,16.75,0,0,0,1.05-23.06,16.49,16.49,0,0,0-11-5.62Z" transform="translate(0 -0.39)"/></svg>