<svg xmlns="http://www.w3.org/2000/svg" xmlns:xlink="http://www.w3.org/1999/xlink" width="111.604" height="26.841" viewBox="0 0 111.604 26.841">
  <defs>
    <clipPath id="clip-path">
      <rect id="Rectangle_3018" data-name="Rectangle 3018" width="111.604" height="26.841" fill="none"/>
    </clipPath>
  </defs>
  <g id="Group_4358" data-name="Group 4358" transform="translate(-10.205 -302)">
    <g id="Group_4357" data-name="Group 4357" transform="translate(10.205 302)" clip-path="url(#clip-path)">
      <g id="Group_4356" data-name="Group 4356" transform="translate(0)">
        <path id="Path_1050" data-name="Path 1050" d="M57.368,17.3h11.3v2.065H64.225V30.97H61.782V19.364H57.358V17.3Zm10.818,3.772h2.089v1.91h.039A2.232,2.232,0,0,1,70.7,22.2a3.516,3.516,0,0,1,.68-.695,3.643,3.643,0,0,1,.887-.511,2.76,2.76,0,0,1,1-.193c.256,0,.443.009.542.019s.2.029.305.039v2.1c-.157-.029-.315-.048-.483-.067a4.192,4.192,0,0,0-.483-.029,2.656,2.656,0,0,0-1.064.222,2.452,2.452,0,0,0-.867.647,3.267,3.267,0,0,0-.591,1.061,4.425,4.425,0,0,0-.216,1.457V30.96H68.176V21.071Zm16.157,9.9H82.156v-1.38h-.039a3.009,3.009,0,0,1-1.222,1.2,3.4,3.4,0,0,1-1.655.453,3.753,3.753,0,0,1-2.886-.964,4.208,4.208,0,0,1-.887-2.924V21.071h2.227V27.14a2.631,2.631,0,0,0,.512,1.843,1.877,1.877,0,0,0,1.429.54,2.787,2.787,0,0,0,1.172-.212,1.969,1.969,0,0,0,.759-.569,2.172,2.172,0,0,0,.424-.849,4.11,4.11,0,0,0,.128-1.071v-5.74h2.227ZM88.136,27.8a1.672,1.672,0,0,0,.739,1.341,3.033,3.033,0,0,0,1.547.386,6.68,6.68,0,0,0,.709-.048,3.041,3.041,0,0,0,.749-.183,1.448,1.448,0,0,0,.581-.4.947.947,0,0,0,.206-.675.924.924,0,0,0-.315-.685A2.226,2.226,0,0,0,91.6,27.1a7.611,7.611,0,0,0-1.044-.28c-.394-.077-.788-.164-1.193-.251a11.382,11.382,0,0,1-1.2-.328,3.7,3.7,0,0,1-1.034-.521,2.3,2.3,0,0,1-.729-.829,2.552,2.552,0,0,1-.275-1.255,2.227,2.227,0,0,1,.4-1.351,3.053,3.053,0,0,1,1.015-.878,4.763,4.763,0,0,1,1.37-.473,8.482,8.482,0,0,1,1.438-.135,6.863,6.863,0,0,1,1.5.164,3.9,3.9,0,0,1,1.291.531,3.162,3.162,0,0,1,.956.945,3.247,3.247,0,0,1,.483,1.409H92.254a1.36,1.36,0,0,0-.729-1.052,3.047,3.047,0,0,0-1.32-.27,4.3,4.3,0,0,0-.561.039,3.126,3.126,0,0,0-.611.145,1.326,1.326,0,0,0-.483.308.739.739,0,0,0-.2.531.817.817,0,0,0,.286.646,2.41,2.41,0,0,0,.739.415,7.778,7.778,0,0,0,1.045.28c.394.077.8.164,1.212.251s.8.2,1.192.328a3.624,3.624,0,0,1,1.044.52,2.586,2.586,0,0,1,.739.82,2.46,2.46,0,0,1,.285,1.226,2.628,2.628,0,0,1-.413,1.5,3.24,3.24,0,0,1-1.065.994,5.051,5.051,0,0,1-1.457.56,7.477,7.477,0,0,1-1.586.173,6.855,6.855,0,0,1-1.773-.212,4.362,4.362,0,0,1-1.409-.637,3.173,3.173,0,0,1-.936-1.071,3.455,3.455,0,0,1-.365-1.525h2.247Zm7.35-6.725H97.17V18.1H99.4v2.972h2.01V22.7H99.4v5.287a5.225,5.225,0,0,0,.03.6,1.076,1.076,0,0,0,.138.425.627.627,0,0,0,.325.261,1.621,1.621,0,0,0,.591.087c.158,0,.315,0,.473-.01a2.63,2.63,0,0,0,.473-.067V30.97c-.246.029-.492.048-.719.077a5.818,5.818,0,0,1-.719.039,5.078,5.078,0,0,1-1.419-.164,1.844,1.844,0,0,1-.838-.483,1.666,1.666,0,0,1-.413-.791,5.835,5.835,0,0,1-.128-1.09V22.721H95.506v-1.65Zm7.5,0h2.108v1.341h.04a2.725,2.725,0,0,1,1.31-1.235,4.39,4.39,0,0,1,1.822-.376,4.8,4.8,0,0,1,2.079.415,4.054,4.054,0,0,1,1.478,1.129,4.9,4.9,0,0,1,.877,1.679,6.9,6.9,0,0,1,.3,2.046A6.978,6.978,0,0,1,112.727,28a5.114,5.114,0,0,1-.8,1.66,3.9,3.9,0,0,1-1.359,1.148,4.1,4.1,0,0,1-1.941.434,5.562,5.562,0,0,1-.976-.086,4.341,4.341,0,0,1-.936-.28,3.389,3.389,0,0,1-.828-.492,3.064,3.064,0,0,1-.64-.695h-.04v4.94h-2.226V21.071Zm7.783,4.959a4.836,4.836,0,0,0-.177-1.3,3.5,3.5,0,0,0-.532-1.119,2.688,2.688,0,0,0-.877-.782,2.5,2.5,0,0,0-1.212-.3,2.475,2.475,0,0,0-2.118.955,4.176,4.176,0,0,0-.709,2.547,4.8,4.8,0,0,0,.187,1.39,3.079,3.079,0,0,0,.561,1.1,2.643,2.643,0,0,0,.887.723,2.827,2.827,0,0,0,2.492-.039,2.7,2.7,0,0,0,.867-.791,3.255,3.255,0,0,0,.492-1.109,6.067,6.067,0,0,0,.138-1.274ZM114.7,17.3h2.227v2.065H114.7Zm0,3.772h2.227v9.9H114.7Zm4.216-3.772h2.227V30.97h-2.227Zm9.054,13.941a5.609,5.609,0,0,1-2.158-.4,4.761,4.761,0,0,1-1.605-1.081,4.688,4.688,0,0,1-1-1.65,6.256,6.256,0,0,1-.344-2.1,6.18,6.18,0,0,1,.344-2.084,4.688,4.688,0,0,1,1-1.65A4.538,4.538,0,0,1,125.81,21.2a6.084,6.084,0,0,1,4.315,0,4.763,4.763,0,0,1,1.606,1.081,4.678,4.678,0,0,1,.995,1.65,6.165,6.165,0,0,1,.345,2.084,6.24,6.24,0,0,1-.345,2.1,4.678,4.678,0,0,1-.995,1.65,4.54,4.54,0,0,1-1.606,1.081,5.607,5.607,0,0,1-2.158.4Zm0-1.727a2.624,2.624,0,0,0,1.291-.309,2.723,2.723,0,0,0,.9-.8,3.567,3.567,0,0,0,.522-1.119,4.9,4.9,0,0,0,0-2.538,3.283,3.283,0,0,0-.522-1.119,2.69,2.69,0,0,0-.9-.791,2.849,2.849,0,0,0-2.581,0,2.8,2.8,0,0,0-.9.791,3.466,3.466,0,0,0-.522,1.119,4.9,4.9,0,0,0,0,2.538,3.359,3.359,0,0,0,.522,1.119,2.717,2.717,0,0,0,.9.8,2.519,2.519,0,0,0,1.29.309Zm5.754-8.442h1.684V18.1h2.227v2.972h2.01V22.7h-2.01v5.287a5.382,5.382,0,0,0,.029.6,1.085,1.085,0,0,0,.138.425.629.629,0,0,0,.325.261,1.621,1.621,0,0,0,.591.087c.157,0,.315,0,.473-.01a2.637,2.637,0,0,0,.473-.067V30.97c-.246.029-.492.048-.719.077a5.817,5.817,0,0,1-.719.039,5.075,5.075,0,0,1-1.419-.164,1.844,1.844,0,0,1-.838-.483,1.655,1.655,0,0,1-.413-.791,5.837,5.837,0,0,1-.128-1.09V22.721h-1.685v-1.65Z" transform="translate(-28.039 -7.786)" fill="#fff"/>
        <path id="Path_1051" data-name="Path 1051" d="M36.933,11.513H26.727L23.574,2l-3.162,9.513L10.2,11.5l8.266,5.885-3.162,9.5,8.266-5.875,8.256,5.875-3.152-9.5Z" transform="translate(-10.205 -2)" fill="#00b67a"/>
        <path id="Path_1052" data-name="Path 1052" d="M37.519,28.9l-.709-2.151-5.1,3.628Z" transform="translate(-18.337 -11.36)" fill="#005128"/>
      </g>
    </g>
  </g>
</svg>
