<?xml version="1.0" encoding="utf-8"?>
<!-- Generator: Adobe Illustrator 24.3.0, SVG Export Plug-In . SVG Version: 6.00 Build 0)  -->
<svg version="1.1" id="Layer_1" xmlns="http://www.w3.org/2000/svg" xmlns:xlink="http://www.w3.org/1999/xlink" x="0px" y="0px"
	 viewBox="0 0 72 71" style="enable-background:new 0 0 72 71;" xml:space="preserve">
<style type="text/css">
	.st0{fill:#B5D5B7;}
	.st1{fill:#096537;}
	.st2{fill-rule:evenodd;clip-rule:evenodd;fill:#FFFFFF;}
</style>
<circle class="st0" cx="32.6" cy="37.8" r="32.6"/>
<circle class="st1" cx="39.1" cy="32.6" r="32.6"/>
<path class="st2" d="M37.6,37.1c0,0.8,0.7,1.5,1.5,1.5c0.8,0,1.5-0.7,1.5-1.5c0-0.8-0.7-1.5-1.5-1.5C38.3,35.7,37.6,36.3,37.6,37.1z
	 M36.4,37.1c0-1.5,1.2-2.7,2.7-2.7c1.5,0,2.7,1.2,2.7,2.7c0,1.5-1.2,2.7-2.7,2.7C37.6,39.9,36.4,38.6,36.4,37.1z M44.5,47.8
	c-0.1-2.3-1.1-4.3-2.7-5.5c-1.7,0.8-3.6,0.8-5.3,0c-1.6,1.1-2.6,3.2-2.7,5.5C36.9,50.2,41.3,50.2,44.5,47.8L44.5,47.8z M45.8,48.1
	c0,0.2-0.1,0.4-0.2,0.5c-3.7,3-9.1,3-12.8,0c-0.1-0.1-0.2-0.3-0.2-0.5c0-3,1.4-5.7,3.7-7c0.2-0.1,0.5-0.1,0.7,0
	c1.4,0.9,3.2,0.9,4.7,0c0.2-0.1,0.5-0.1,0.7,0C44.3,42.4,45.7,45.1,45.8,48.1L45.8,48.1z M47.9,17.1c0,0.8,0.7,1.5,1.5,1.5
	c0.8,0,1.5-0.7,1.5-1.5c0-0.8-0.7-1.5-1.5-1.5C48.6,15.6,47.9,16.3,47.9,17.1z M46.7,17.1c0-1.5,1.2-2.7,2.7-2.7
	c1.5,0,2.7,1.2,2.7,2.7c0,1.5-1.2,2.7-2.7,2.7C47.9,19.8,46.7,18.6,46.7,17.1z M54.8,27.7c-0.1-2.3-1.1-4.3-2.7-5.5
	c-1.7,0.8-3.6,0.8-5.3,0c-1.6,1.1-2.6,3.2-2.7,5.5C47.2,30.1,51.6,30.1,54.8,27.7L54.8,27.7z M56.1,28c0,0.2-0.1,0.4-0.2,0.5
	c-3.7,3-9.1,3-12.8,0c-0.1-0.1-0.2-0.3-0.2-0.5c0-3,1.4-5.7,3.7-7c0.2-0.1,0.5-0.1,0.7,0c1.4,0.9,3.2,0.9,4.7,0
	c0.2-0.1,0.5-0.1,0.7,0C54.6,22.3,56,25,56.1,28L56.1,28z M27.4,17.1c0,0.8,0.7,1.5,1.5,1.5c0.8,0,1.5-0.7,1.5-1.5
	c0-0.8-0.7-1.5-1.5-1.5C28,15.6,27.4,16.3,27.4,17.1z M26.1,17.1c0-1.5,1.2-2.7,2.7-2.7s2.7,1.2,2.7,2.7c0,1.5-1.2,2.7-2.7,2.7
	S26.1,18.6,26.1,17.1z M23.4,27.7c3.2,2.4,7.6,2.4,10.7,0c-0.1-2.3-1.1-4.3-2.7-5.5c-1.7,0.8-3.6,0.8-5.3,0
	C24.6,23.4,23.6,25.4,23.4,27.7L23.4,27.7z M28.8,30.8c-2.3,0-4.6-0.8-6.4-2.3c-0.2-0.1-0.2-0.3-0.2-0.5c0-3,1.4-5.7,3.7-7
	c0.2-0.1,0.5-0.1,0.7,0c1.4,0.9,3.2,0.9,4.7,0c0.2-0.1,0.5-0.1,0.7,0c2.2,1.3,3.6,4,3.7,7c0,0.2-0.1,0.4-0.2,0.5
	C33.4,30,31.1,30.8,28.8,30.8z M52.2,38.5c-0.2,0.3-0.6,0.4-0.9,0.2l-12.3-7.1l-12.3,7.1c-0.3,0.2-0.7,0.1-0.9-0.2
	c-0.2-0.3-0.1-0.7,0.2-0.9l12.3-7.1V16.4c0-0.4,0.3-0.6,0.6-0.6c0.4,0,0.6,0.3,0.6,0.6v14.2L52,37.6C52.3,37.8,52.4,38.2,52.2,38.5z
	"/>
</svg>
