<svg width="52" height="52" viewBox="0 0 52 52" fill="none" xmlns="http://www.w3.org/2000/svg">
<path d="M11.1337 22.6361C10.8092 22.6361 10.498 22.765 10.2685 22.9944C10.0391 23.2239 9.91016 23.5351 9.91016 23.8596C9.91016 24.184 10.0391 24.4953 10.2685 24.7247C10.498 24.9542 10.8092 25.0831 11.1337 25.0831H43.1281C43.3595 25.1071 43.5929 25.0646 43.801 24.9607L50.4691 20.6785C50.6073 20.5915 50.7266 20.4778 50.8201 20.344C50.9137 20.2102 50.9795 20.059 51.0137 19.8994C51.0479 19.7398 51.0498 19.5749 51.0193 19.4145C50.9888 19.2542 50.9265 19.1015 50.8362 18.9656C50.6595 18.6888 50.3835 18.4902 50.0649 18.4106C49.7464 18.3309 49.4094 18.3763 49.1233 18.5373L42.7611 22.6361H34.8695V20.1891H43.1281C43.398 20.1634 43.6539 20.0568 43.8622 19.8832L50.5303 14.9892C50.6636 14.8974 50.7773 14.7801 50.8649 14.644C50.9526 14.508 51.0123 14.3559 51.0408 14.1966C51.0692 14.0373 51.0658 13.8739 51.0307 13.7159C50.9955 13.558 50.9294 13.4085 50.8362 13.2763C50.7406 13.1451 50.6187 13.0354 50.4782 12.9542C50.3377 12.873 50.1817 12.8221 50.0204 12.8048C49.859 12.7875 49.6959 12.8042 49.5413 12.8538C49.3868 12.9034 49.2444 12.9848 49.1233 13.0928L42.7611 17.7421H34.8695V14.6833H43.1281C43.4137 14.6972 43.695 14.6106 43.9234 14.4386L50.5915 9.17758C50.8417 8.97395 51.0014 8.67971 51.0358 8.35891C51.0702 8.03811 50.9764 7.71671 50.775 7.46468C50.5803 7.20509 50.2904 7.03347 49.9692 6.98758C49.648 6.94169 49.3217 7.02529 49.0621 7.21998L42.6999 12.2363H34.8695V9.17758H43.1281C43.4261 9.21361 43.7275 9.14902 43.9846 8.99406L50.6526 2.87657C50.8316 2.69508 50.9554 2.46649 51.0096 2.2174C51.0637 1.96831 51.046 1.70897 50.9585 1.46955C50.8806 1.22196 50.7261 1.00556 50.5171 0.851601C50.3082 0.697646 50.0557 0.61412 49.7962 0.613097H41.8434C41.6599 0.613097 41.1705 0.0013479 40.6811 0.0013479H27.4674C27.1629 -0.0119851 26.8624 0.073886 26.6109 0.246048L26.1215 0.613097H17.8017C17.4958 0.613097 17.2511 0.857796 17.0064 1.04132L10.3384 7.28116C10.1604 7.42343 10.0341 7.62021 9.97882 7.84125C9.92356 8.0623 9.94242 8.29537 10.0325 8.50466C10.1135 8.72443 10.2662 8.91044 10.4661 9.03257C10.6659 9.1547 10.9011 9.2058 11.1337 9.17758H18.964V12.2363H11.1337C10.8092 12.2363 10.498 12.3652 10.2685 12.5947C10.0391 12.8241 9.91016 13.1353 9.91016 13.4598C9.91016 13.7843 10.0391 14.0955 10.2685 14.325C10.498 14.5544 10.8092 14.6833 11.1337 14.6833H18.964V17.7421H11.1337C10.8092 17.7421 10.498 17.871 10.2685 18.1004C10.0391 18.3299 9.91016 18.6411 9.91016 18.9656C9.91016 19.2901 10.0391 19.6013 10.2685 19.8307C10.498 20.0602 10.8092 20.1891 11.1337 20.1891H18.964V22.6361H11.1337ZM42.6999 6.73059H36.3377L40.3752 3.06009H46.6763L42.6999 6.73059ZM18.2911 3.06009H23.491L19.5146 6.73059H14.2536L18.2911 3.06009Z" fill="url(#paint0_linear_12429_1447)"/>
<path d="M6.42336 31.2005H1.52937C0.684723 31.2005 0 31.8852 0 32.7299V50.4706C0 51.3152 0.684723 52 1.52937 52H6.42336C7.26801 52 7.95273 51.3152 7.95273 50.4706V32.7299C7.95273 31.8852 7.26801 31.2005 6.42336 31.2005Z" fill="url(#paint1_linear_12429_1447)"/>
<path d="M50.8979 31.5675H50.8367C50.6575 31.3364 50.4341 31.1433 50.1795 30.9995C49.9248 30.8557 49.6441 30.7641 49.3537 30.7299C49.0633 30.6957 48.769 30.7197 48.4879 30.8005C48.2069 30.8813 47.9447 31.0173 47.7168 31.2005L39.8864 37.5015C38.8916 38.292 37.6693 38.7423 36.3994 38.7862L28.7526 39.0309C27.618 39.0815 26.4927 38.8055 25.5103 38.2356L24.8374 37.8074C24.5375 37.6283 24.2859 37.3786 24.1046 37.0801C23.9234 36.7815 23.8179 36.4431 23.7974 36.0945C23.7575 35.557 23.916 35.0236 24.2429 34.5952C24.5699 34.1668 25.0426 33.8731 25.5715 33.7698L31.9337 32.5463C32.5015 32.4733 33.0171 32.1777 33.367 31.7245C33.717 31.2714 33.8725 30.6978 33.7995 30.1299C33.7265 29.562 33.4309 29.0464 32.9777 28.6965C32.5246 28.3466 31.951 28.1911 31.3831 28.2641H31.3219L23.0633 27.897C20.1523 27.7902 17.2638 28.4438 14.6824 29.7934L9.66602 32.3016V46.1271L14.0094 45.2707C15.4238 45.0349 16.8596 44.9529 18.2917 45.026L30.8937 45.6377C34.916 45.7845 38.8534 44.4575 41.9664 41.9061L50.6532 34.6263C50.8734 34.4437 51.0548 34.2189 51.1867 33.9651C51.3186 33.7113 51.3983 33.4337 51.4211 33.1485C51.4439 32.8634 51.4094 32.5766 51.3195 32.3051C51.2297 32.0335 51.0863 31.7827 50.8979 31.5675Z" fill="url(#paint2_linear_12429_1447)"/>
<defs>
<linearGradient id="paint0_linear_12429_1447" x1="30.485" y1="0" x2="30.485" y2="25.0896" gradientUnits="userSpaceOnUse">
<stop stop-color="#53A3F9"/>
<stop offset="1" stop-color="#057BFB"/>
</linearGradient>
<linearGradient id="paint1_linear_12429_1447" x1="3.97637" y1="31.2005" x2="3.97637" y2="52" gradientUnits="userSpaceOnUse">
<stop stop-color="#53A3F9"/>
<stop offset="1" stop-color="#057BFB"/>
</linearGradient>
<linearGradient id="paint2_linear_12429_1447" x1="30.547" y1="27.8857" x2="30.547" y2="46.1271" gradientUnits="userSpaceOnUse">
<stop stop-color="#53A3F9"/>
<stop offset="1" stop-color="#057BFB"/>
</linearGradient>
</defs>
</svg>
