<svg width="87" height="52" viewBox="0 0 87 52" fill="none" xmlns="http://www.w3.org/2000/svg">
<path d="M85.5401 20.0508L74.992 1.90041C74.2979 0.722499 73.0325 1.47809e-05 71.6656 1.47809e-05C70.9895 -0.00197459 70.3286 0.196893 69.7652 0.570081L65.5838 3.04064C64.7016 3.57358 64.0559 4.42337 63.7781 5.41635C63.4726 6.3755 63.6118 7.42144 64.1586 8.26736L69.48 17.3904L75.1821 26.8932C75.7561 27.5892 76.5588 28.0585 77.4471 28.215C78.3354 28.3721 79.2508 28.2063 80.0283 27.7483L84.2097 25.2777C85.0734 24.7567 85.6979 23.9149 85.9471 22.9372C86.1956 21.9588 86.0498 20.9218 85.5401 20.0508Z" fill="url(#paint0_linear_12357_482)"/>
<path d="M67.4857 18.3402L62.7343 10.3581C61.754 11.0653 60.7026 11.6705 59.5984 12.1638C58.7168 12.5787 57.7934 12.8975 56.8429 13.1137C56.6176 13.1766 56.3763 13.1422 56.1774 13.0189C53.8368 11.5274 51.2185 10.5259 48.4803 10.0732C42.3985 8.93303 37.8373 9.78813 36.1265 11.2133C34.112 13.1011 32.2381 15.1341 30.52 17.2951C29.4309 18.6434 28.4458 20.0731 27.5743 21.5712C27.2932 22.1055 27.1878 22.714 27.2727 23.3112C27.3582 23.9085 27.63 24.4639 28.0496 24.8975C28.6839 25.5762 29.5947 25.9269 30.5201 25.848C30.9032 25.8003 31.2486 25.5935 31.4707 25.2773C33.8218 21.5116 37.0917 18.4047 40.9735 16.2498C41.3672 15.9628 41.9194 16.0476 42.209 16.44C45.4583 19.942 49.0921 23.066 53.0422 25.7526C64.4322 33.8952 69.4819 30.2189 70.6224 29.4587C71.4775 28.8886 72.3326 28.2231 73.1884 27.5583C73.1884 27.4635 73.0936 27.4635 73.0936 27.3681L67.4857 18.3402Z" fill="url(#paint1_linear_12357_482)"/>
<path d="M39.8313 41.3371C39.3103 40.9056 38.6892 40.6113 38.0256 40.482C37.372 40.4529 36.7536 40.7803 36.4102 41.3371L31.7537 47.7987C31.1803 48.7028 31.3858 49.8954 32.229 50.5548L32.8945 51.0301C33.7986 51.6035 34.9899 51.398 35.65 50.5548L40.3065 44.0933C40.8799 43.1891 40.6738 41.9972 39.8313 41.3371Z" fill="url(#paint2_linear_12357_482)"/>
<path d="M35.9354 37.726C35.8426 37.1592 35.5363 36.6488 35.0803 36.3002L34.7952 36.1099L34.7946 36.1106C34.4041 35.8428 33.9375 35.7089 33.4642 35.7301C32.747 35.7473 32.0795 36.0993 31.6592 36.6806L26.1476 44.2831C25.834 44.7603 25.6995 45.3317 25.7671 45.8984C25.8605 46.4652 26.1661 46.9749 26.6222 47.3236L26.9072 47.5138C27.3639 47.8698 27.9552 48.009 28.5233 47.8937C29.09 47.8009 29.5998 47.4946 29.9484 47.0386L35.5549 39.4362C35.8598 38.9211 35.993 38.3219 35.9354 37.726Z" fill="url(#paint3_linear_12357_482)"/>
<path d="M29.5684 35.1603C29.469 34.6465 29.1588 34.1984 28.7127 33.9247L28.1426 33.4494C27.7051 33.1239 27.1543 32.9907 26.616 33.0802C26.0784 33.1703 25.5998 33.4753 25.2916 33.9247L20.8253 40.1012C20.4707 40.5221 20.3308 41.0835 20.4455 41.6218C20.5171 42.1713 20.8306 42.6598 21.3006 42.9521L21.8706 43.332C22.3081 43.6574 22.8596 43.7913 23.3972 43.7018C23.9355 43.6124 24.4134 43.3074 24.7216 42.8574L29.1879 36.6809C29.5001 36.2394 29.636 35.6965 29.5684 35.1603Z" fill="url(#paint4_linear_12357_482)"/>
<path d="M22.8231 33.0696C22.7237 32.5811 22.4539 32.1436 22.0628 31.8341L21.3973 31.3588L21.3979 31.3595C21.0711 31.1076 20.6694 30.9737 20.2571 30.979H19.9721C19.4836 31.0784 19.0461 31.3482 18.7372 31.7393L16.5517 34.685C16.2408 35.0907 16.1036 35.6037 16.1712 36.1108C16.2707 36.5993 16.5398 37.0368 16.9315 37.3457L17.5971 37.821C17.9749 38.1849 18.5131 38.3287 19.0222 38.2008C19.5107 38.1014 19.9482 37.8323 20.2571 37.4412L22.4426 34.4955L22.4432 34.4948C22.7959 34.111 22.9378 33.5781 22.8231 33.0696Z" fill="url(#paint5_linear_12357_482)"/>
<path d="M67.2005 35.6353L63.4944 32.9745C60.4532 32.2142 57.8879 30.789 52.3761 27.1778C48.4169 24.6146 44.8075 21.5481 41.6378 18.0548C38.3388 20.0553 35.5428 22.7863 33.4654 26.037C32.951 26.8689 32.0661 27.3998 31.0897 27.4628C29.5837 27.6212 28.0849 27.0982 27.0038 26.037C26.2879 25.3105 25.8272 24.3712 25.69 23.3604C25.5528 22.3496 25.747 21.3214 26.2435 20.4305C27.1463 18.8389 28.1626 17.3144 29.2847 15.8693C29.8548 15.2038 30.4249 14.4441 30.9949 13.7787C29.8269 13.6189 28.6795 13.3326 27.5739 12.9236C26.0414 12.4264 24.5983 11.6887 23.2978 10.7374L14.0801 27.8425C14.5554 28.6976 16.5506 31.3584 16.646 31.4537L17.3115 30.5986C17.9127 29.7966 18.795 29.2537 19.7819 29.078C20.7829 28.909 21.8096 29.1489 22.6323 29.7429L23.2978 30.2182C23.8904 30.655 24.3511 31.2469 24.6281 31.929C25.3049 31.4053 26.1328 31.1137 26.9879 31.0971C27.8437 31.0799 28.6822 31.3384 29.3795 31.8335L29.9496 32.2134C30.5913 32.7808 31.0811 33.5 31.3748 34.3047C31.8295 34.0899 32.3081 33.9301 32.8006 33.8294C33.8738 33.6935 34.9582 33.9653 35.8411 34.5897L36.1262 34.7799C36.974 35.4382 37.5493 36.3847 37.7422 37.4407V38.5809C39.0514 38.2322 41.3535 39.8164 41.3535 39.8164C42.1761 40.4276 42.7263 41.337 42.886 42.3499C43.0458 43.3628 42.8025 44.3975 42.2086 45.2327L40.2126 47.8935L45.0589 51.5047C45.5766 51.8912 46.2242 52.0615 46.8646 51.98C47.4386 51.9873 47.9769 51.7003 48.2904 51.2197L48.7657 50.5542C49.0507 50.067 49.1508 49.4942 49.0501 48.9388C48.9506 48.2752 48.5695 47.6866 48.0054 47.3234L45.8199 45.708C45.4328 45.3746 45.3513 44.8058 45.6297 44.3776C45.9591 43.9832 46.5332 43.9017 46.96 44.1874L49.1455 45.8028L51.4264 47.5129L51.4257 47.5136C52.4028 48.3077 53.8345 48.1811 54.6572 47.2286L55.1324 46.5631C55.7396 45.6019 55.5361 44.3385 54.6572 43.6173L54.5624 43.5226C54.4676 43.5226 48.1008 38.9614 48.1008 38.9614L48.1001 38.9607C47.6799 38.6459 47.595 38.0506 47.9099 37.6304C48.2248 37.2108 48.8207 37.1259 49.2403 37.4408L57.888 43.6173C58.4103 43.9931 59.054 44.1621 59.6937 44.0925C60.2677 44.0998 60.8053 43.8128 61.1188 43.3322L61.5941 42.6667C61.9143 42.1517 62.0144 41.5293 61.8719 40.9392C61.7287 40.35 61.3548 39.8422 60.8338 39.5307L53.2314 34.019C52.8377 33.6889 52.7555 33.1162 53.0418 32.6893C53.3752 32.3022 53.9433 32.2207 54.3722 32.4991L61.9746 38.0107L64.2554 39.7209C64.7784 40.0967 65.4208 40.2657 66.0605 40.1962C66.6345 40.2034 67.1721 39.9171 67.4856 39.4359L67.9609 38.7703C68.2817 38.2546 68.3812 37.6329 68.2386 37.0435C68.0955 36.4536 67.7215 35.9462 67.2005 35.6353Z" fill="url(#paint6_linear_12357_482)"/>
<path d="M20.5415 3.32584L16.1699 0.950141C15.6151 0.649205 14.9959 0.486132 14.3648 0.475525C13.6834 0.482818 13.0159 0.671726 12.4312 1.0224C11.8465 1.37305 11.366 1.87285 11.0385 2.47076L0.965698 20.9062C0.481802 21.8024 0.369787 22.8531 0.654159 23.8314C0.939193 24.8091 1.59675 25.6357 2.48633 26.1328L6.76243 28.5085C7.65398 29.0149 8.71254 29.1388 9.69693 28.8525C10.6819 28.5661 11.5086 27.8933 11.9891 26.9879L22.062 8.55244C22.5458 7.65626 22.6579 6.60555 22.3735 5.62727C22.0891 4.64955 21.4311 3.82287 20.5415 3.32584Z" fill="url(#paint7_linear_12357_482)"/>
<defs>
<linearGradient id="paint0_linear_12357_482" x1="74.8423" y1="0" x2="74.8423" y2="28.2727" gradientUnits="userSpaceOnUse">
<stop stop-color="#53A3F9"/>
<stop offset="1" stop-color="#057BFB"/>
</linearGradient>
<linearGradient id="paint1_linear_12357_482" x1="50.2163" y1="9.54483" x2="50.2163" y2="30.9442" gradientUnits="userSpaceOnUse">
<stop stop-color="#53A3F9"/>
<stop offset="1" stop-color="#057BFB"/>
</linearGradient>
<linearGradient id="paint2_linear_12357_482" x1="36.0298" y1="40.4802" x2="36.0298" y2="51.3541" gradientUnits="userSpaceOnUse">
<stop stop-color="#53A3F9"/>
<stop offset="1" stop-color="#057BFB"/>
</linearGradient>
<linearGradient id="paint3_linear_12357_482" x1="30.8493" y1="35.7279" x2="30.8493" y2="47.9333" gradientUnits="userSpaceOnUse">
<stop stop-color="#53A3F9"/>
<stop offset="1" stop-color="#057BFB"/>
</linearGradient>
<linearGradient id="paint4_linear_12357_482" x1="24.9958" y1="33.053" x2="24.9958" y2="43.7291" gradientUnits="userSpaceOnUse">
<stop stop-color="#53A3F9"/>
<stop offset="1" stop-color="#057BFB"/>
</linearGradient>
<linearGradient id="paint5_linear_12357_482" x1="19.5082" y1="30.9788" x2="19.5082" y2="38.2467" gradientUnits="userSpaceOnUse">
<stop stop-color="#53A3F9"/>
<stop offset="1" stop-color="#057BFB"/>
</linearGradient>
<linearGradient id="paint6_linear_12357_482" x1="41.1911" y1="10.7374" x2="41.1911" y2="51.9999" gradientUnits="userSpaceOnUse">
<stop stop-color="#53A3F9"/>
<stop offset="1" stop-color="#057BFB"/>
</linearGradient>
<linearGradient id="paint7_linear_12357_482" x1="11.5138" y1="0.475525" x2="11.5138" y2="29.0036" gradientUnits="userSpaceOnUse">
<stop stop-color="#53A3F9"/>
<stop offset="1" stop-color="#057BFB"/>
</linearGradient>
</defs>
</svg>
