<svg width="49" height="52" viewBox="0 0 49 52" fill="none" xmlns="http://www.w3.org/2000/svg">
<path d="M22.9221 1.31324C22.2354 1.99994 21.838 2.86119 21.7051 3.75087C21.004 3.78714 20.3124 4.05871 19.7818 4.58937C18.6071 5.76402 18.7722 7.15738 19.3326 8.16794L10.6452 16.8554C9.6947 16.1244 8.14684 16.2812 7.06661 17.3045C6.52769 17.8435 6.2535 18.5481 6.22449 19.2604C5.32142 19.3888 4.44571 19.7841 3.75064 20.4792C2.04181 22.1881 2.04182 24.9858 3.75064 26.6946L12.7369 35.6737C14.4457 37.3825 17.2358 37.383 18.9451 35.6737C19.6413 34.9774 20.042 34.1024 20.1693 33.1998C20.8797 33.1697 21.5823 32.8952 22.1198 32.3577C23.2146 31.2629 23.129 29.794 22.5708 28.7845L24.715 26.6403L39.6233 44.2035C41.6623 46.2425 44.5308 46.4278 46.7008 44.2579C48.6365 42.3221 48.7274 39.0782 46.6663 37.2004C40.7757 32.2587 34.8841 27.3075 28.9944 22.3609L31.2618 20.0935C32.3861 20.7515 33.8641 20.6116 34.8241 19.6516C35.3679 19.0604 35.534 18.3487 35.6735 17.7265C36.5657 17.5918 37.431 17.1896 38.1183 16.5022C39.8276 14.7929 39.8199 12.0029 38.111 10.294L29.1302 1.3132C27.3586 -0.458373 24.7065 -0.417008 22.9221 1.31324ZM22.6232 5.90235L33.5219 16.8011C33.995 17.2741 33.9026 17.9507 33.5219 18.3314C33.1177 18.7356 32.4559 18.812 31.9844 18.3404L21.0838 7.44177C20.6484 7.00637 20.5609 6.4344 21.0838 5.91146C21.6045 5.40778 22.2098 5.51186 22.6232 5.90235ZM9.91895 18.6066L20.8177 29.5072C21.2531 29.9426 21.2531 30.6003 20.8177 31.0357C20.2718 31.5816 19.6803 31.4486 19.2783 31.0465L8.37955 20.146C7.94415 19.7106 7.94415 19.0529 8.37955 18.6175C8.85508 18.1859 9.47843 18.1793 9.91895 18.6066ZM5.47471 39.6851C3.45513 39.6851 2.73102 41.1906 2.73102 43.1459C10.7535 43.0894 18.8347 43.1189 25.7219 43.1459C25.7219 41.0225 24.6366 39.7363 22.9764 39.6851H5.47471ZM2.97008 44.9769C1.39434 44.9769 6.84928e-06 46.1605 6.84928e-06 47.7278V51.0691C-0.00194036 51.5812 0.411544 51.998 0.923626 52H27.522C28.0341 51.998 28.4476 51.5812 28.4457 51.0691V47.7278C28.4457 46.1605 27.0513 44.9769 25.4756 44.9769H2.97008Z" fill="url(#paint0_linear_12429_1421)"/>
<defs>
<linearGradient id="paint0_linear_12429_1421" x1="24.0912" y1="0" x2="24.0912" y2="52" gradientUnits="userSpaceOnUse">
<stop stop-color="#53A3F9"/>
<stop offset="1" stop-color="#057BFB"/>
</linearGradient>
</defs>
</svg>
