<svg width="52" height="52" viewBox="0 0 52 52" fill="none" xmlns="http://www.w3.org/2000/svg">
<g clip-path="url(#clip0_12429_1435)">
<path d="M11.6933 50.6513V49.3296C11.6175 49.3405 11.5416 49.3621 11.4658 49.3838C11.195 49.4596 10.9025 49.4921 10.61 49.4921C9.90583 49.4921 9.20164 49.2646 8.63828 48.8313C7.81501 48.1813 7.35996 47.2496 7.35996 46.2529V38.5721H1.08748C0.697499 38.5721 0.350825 38.7671 0.155832 39.103C-0.0391596 39.4279 -0.0500035 39.8288 0.123301 40.1646L2.78832 45.148L0.123301 50.1421C-0.0500035 50.478 -0.0391596 50.8788 0.155832 51.2038C0.350825 51.5288 0.697499 51.7346 1.08748 51.7346H10.61C11.2058 51.7346 11.6933 51.2471 11.6933 50.6513Z" fill="url(#paint0_linear_12429_1435)"/>
<path d="M51.8412 39.103C51.6462 38.7671 51.2995 38.5721 50.9204 38.5721H44.637V46.2529C44.637 47.2821 44.1712 48.2138 43.3587 48.8313C42.8062 49.2646 42.1129 49.5029 41.387 49.5029C41.0728 49.5029 40.7804 49.4596 40.4879 49.3729C40.4229 49.3512 40.3687 49.3405 40.3037 49.3296V50.6513C40.3037 51.2471 40.7912 51.7346 41.387 51.7346H50.9204C51.2995 51.7346 51.6462 51.5288 51.8412 51.2038C52.0362 50.8788 52.047 50.478 51.8737 50.1421L49.2087 45.148L51.8737 40.1646C52.047 39.8288 52.0362 39.4279 51.8412 39.103Z" fill="url(#paint1_linear_12429_1435)"/>
<path d="M37.5961 8.63962C37.4661 8.24964 37.1303 7.95712 36.7186 7.90296L29.9802 6.92794L26.9686 0.817921C26.6111 0.081262 25.3978 0.081262 25.0294 0.817921L22.0178 6.92794L15.2794 7.90296C14.8677 7.95712 14.5319 8.24964 14.4019 8.63962C14.2828 9.0296 14.3803 9.46297 14.6836 9.74458L19.5586 14.5004L18.3994 21.2063C18.3344 21.6179 18.4969 22.0296 18.8328 22.2679C19.1686 22.5171 19.6127 22.5496 19.9703 22.3546L26.0044 19.1804L32.0278 22.3546C32.1794 22.4413 32.3528 22.4737 32.5261 22.4737C32.7536 22.4737 32.9811 22.4087 33.1653 22.2679C33.5011 22.0296 33.6636 21.6179 33.5986 21.2063L32.4503 14.5004L37.3253 9.74458C37.6177 9.46297 37.7261 9.0296 37.5961 8.63962Z" fill="url(#paint2_linear_12429_1435)"/>
<path d="M51.0721 16.3746L46.8253 15.7571L44.9295 11.9112C44.5612 11.1637 43.3479 11.1637 42.9795 11.9112L41.0837 15.7571L36.837 16.3746C36.4254 16.4288 36.0895 16.7212 35.9595 17.1113C35.8404 17.5013 35.9378 17.9346 36.2412 18.2163L39.307 21.2171L38.5812 25.4421C38.5162 25.8538 38.6787 26.2654 39.0145 26.5038C39.1987 26.6446 39.4262 26.7096 39.6537 26.7096C39.827 26.7096 40.0003 26.6771 40.152 26.5905L43.9545 24.5863L47.7571 26.5905C48.1145 26.7855 48.5587 26.7529 48.8945 26.5038C49.2304 26.2654 49.3928 25.8538 49.3278 25.4421L48.602 21.2171L51.6679 18.2163C51.9712 17.9346 52.0687 17.5013 51.9495 17.1113C51.8196 16.7212 51.4837 16.4288 51.0721 16.3746Z" fill="url(#paint3_linear_12429_1435)"/>
<path d="M9.01743 11.9112C8.83322 11.5321 8.45408 11.3046 8.0424 11.3046C7.63073 11.3046 7.25159 11.5321 7.07822 11.9112L5.17161 15.7571L0.924896 16.3746C0.524068 16.4288 0.177394 16.7212 0.0582427 17.1113C-0.071752 17.5013 0.0365549 17.9346 0.329076 18.2163L3.40577 21.2171L2.67989 25.4421C2.60405 25.8538 2.77742 26.2654 3.10241 26.5038C3.43824 26.7529 3.88244 26.7855 4.25074 26.5905L8.0424 24.5863L11.8449 26.5905C12.0074 26.6771 12.1807 26.7096 12.3433 26.7096C12.5707 26.7096 12.7983 26.6446 12.9824 26.5038C13.3182 26.2654 13.4808 25.8538 13.4158 25.4421L12.6899 21.2171L15.7666 18.2163C16.0591 17.9346 16.1674 17.5013 16.0374 17.1113C15.9074 16.7212 15.5716 16.4288 15.1599 16.3746L10.9133 15.7571L9.01743 11.9112Z" fill="url(#paint4_linear_12429_1435)"/>
<path d="M41.3872 47.3363C41.6255 47.3363 41.8531 47.2604 42.0481 47.1088C42.3189 46.903 42.4706 46.5888 42.4706 46.2529V33.7946C42.4706 33.3071 42.1455 32.8738 41.6797 32.7438C30.6839 29.7538 21.313 29.7538 10.328 32.7438C9.85135 32.8738 9.52637 33.3071 9.52637 33.7946V46.2529C9.52637 46.5888 9.68889 46.903 9.94888 47.1088C10.2197 47.3146 10.5772 47.3796 10.8914 47.2929C21.4864 44.4112 30.5214 44.4112 41.1056 47.2929C41.203 47.3254 41.2897 47.3363 41.3872 47.3363Z" fill="url(#paint5_linear_12429_1435)"/>
</g>
<defs>
<linearGradient id="paint0_linear_12429_1435" x1="5.84714" y1="38.5721" x2="5.84714" y2="51.7346" gradientUnits="userSpaceOnUse">
<stop stop-color="#53A3F9"/>
<stop offset="1" stop-color="#057BFB"/>
</linearGradient>
<linearGradient id="paint1_linear_12429_1435" x1="46.1499" y1="38.5721" x2="46.1499" y2="51.7346" gradientUnits="userSpaceOnUse">
<stop stop-color="#53A3F9"/>
<stop offset="1" stop-color="#057BFB"/>
</linearGradient>
<linearGradient id="paint2_linear_12429_1435" x1="26.0015" y1="0.265427" x2="26.0015" y2="22.4808" gradientUnits="userSpaceOnUse">
<stop stop-color="#53A3F9"/>
<stop offset="1" stop-color="#057BFB"/>
</linearGradient>
<linearGradient id="paint3_linear_12429_1435" x1="43.9545" y1="11.3506" x2="43.9545" y2="26.7167" gradientUnits="userSpaceOnUse">
<stop stop-color="#53A3F9"/>
<stop offset="1" stop-color="#057BFB"/>
</linearGradient>
<linearGradient id="paint4_linear_12429_1435" x1="8.04783" y1="11.3046" x2="8.04783" y2="26.7167" gradientUnits="userSpaceOnUse">
<stop stop-color="#53A3F9"/>
<stop offset="1" stop-color="#057BFB"/>
</linearGradient>
<linearGradient id="paint5_linear_12429_1435" x1="25.9985" y1="30.5013" x2="25.9985" y2="47.3363" gradientUnits="userSpaceOnUse">
<stop stop-color="#53A3F9"/>
<stop offset="1" stop-color="#057BFB"/>
</linearGradient>
<clipPath id="clip0_12429_1435">
<rect width="52" height="52" fill="white"/>
</clipPath>
</defs>
</svg>
